<svg width="63" height="132" viewBox="0 0 63 132" fill="none" xmlns="http://www.w3.org/2000/svg">
<path d="M15.461 23.2255C20.0149 24.4208 25.5284 25.1201 31.4692 25.1201C37.4099 25.1201 42.9234 24.4208 47.4773 23.2255C51.7894 22.0938 56.6392 19.4314 58.7785 17.5834L32.8044 63.3795C32.1884 64.4657 30.7499 64.4657 30.1339 63.3795L4.15991 17.5834C6.29913 19.4314 11.149 22.0938 15.461 23.2255Z" fill="#6366F1"/>
<path d="M15.461 108.541C20.0149 107.346 25.5284 106.647 31.4692 106.647C37.4099 106.647 42.9234 107.346 47.4773 108.541C51.7894 109.673 56.6392 112.335 58.7785 114.183L32.8044 68.3874C32.1884 67.3013 30.7499 67.3013 30.1339 68.3874L4.15991 114.183C6.29913 112.335 11.149 109.673 15.461 108.541Z" fill="#6366F1"/>
<path fill-rule="evenodd" clip-rule="evenodd" d="M56.6412 14.2469C56.6355 14.2775 56.6246 14.3308 56.6046 14.4085C56.5556 14.5996 56.4789 14.8317 56.384 15.0798C56.356 15.1528 56.3279 15.2237 56.3002 15.2914C54.3003 16.7989 50.3171 18.9231 46.7465 19.8604C42.4636 20.9846 37.1985 21.6604 31.4691 21.6604C25.7396 21.6604 20.4746 20.9846 16.1916 19.8604C12.5895 18.915 8.56754 16.7615 6.58551 15.2516C6.56735 15.2095 6.54898 15.1654 6.53066 15.1201C6.4499 14.9196 6.38384 14.7233 6.34067 14.5496C6.29943 14.3839 6.29444 14.3 6.29389 14.2905C6.29389 14.2467 6.31019 13.706 7.3714 12.7464C8.41084 11.8068 10.105 10.8061 12.4761 9.89941C17.1887 8.0973 23.9037 6.91932 31.4691 6.91932C39.0344 6.91932 45.7494 8.0973 50.462 9.89941C52.8331 10.8061 54.5272 11.8068 55.5666 12.7464C56.4879 13.5793 56.6218 14.0962 56.6412 14.2469ZM1.4976 19.4281L27.4635 65.21C29.3115 68.4683 33.6266 68.4683 35.4746 65.21L61.4487 19.4139C61.4762 19.3651 61.5028 19.3156 61.5283 19.2653L58.7784 17.5834C61.5283 19.2653 61.528 19.2658 61.5283 19.2653L61.53 19.2617L61.5322 19.2573L61.5379 19.2463L61.5533 19.2153C61.5654 19.1907 61.5813 19.1586 61.6002 19.1193C61.6381 19.0411 61.6891 18.9339 61.7486 18.8034C61.8666 18.5452 62.0249 18.1823 62.1855 17.7624C62.4505 17.0698 62.9381 15.6877 62.9381 14.29C62.9381 11.343 61.3694 9.03411 59.5643 7.40212C57.7374 5.75043 55.2839 4.41731 52.5297 3.36412C46.9918 1.24646 39.5456 0 31.4691 0C23.3925 0 15.9463 1.24646 10.4084 3.36414C7.65428 4.41731 5.20073 5.75044 3.3738 7.40214C1.56867 9.03413 0 11.343 0 14.29C0 15.789 0.460471 17.1388 0.776058 17.9223C0.949987 18.3539 1.12264 18.7161 1.25385 18.9743C1.32011 19.1049 1.37753 19.2124 1.42163 19.2926C1.44372 19.3329 1.4626 19.3667 1.47774 19.3933L1.48948 19.4139L1.4976 19.4281ZM50.3297 25.9405L31.4691 59.1948L12.6082 25.9405C13.321 26.1881 14.0319 26.4072 14.7302 26.5906C19.555 27.857 25.317 28.5797 31.4691 28.5797C37.6211 28.5797 43.3831 27.857 48.2079 26.5906C48.9061 26.4072 49.6171 26.1881 50.3297 25.9405Z" fill="#6366F1"/>
<path fill-rule="evenodd" clip-rule="evenodd" d="M56.6412 117.52C56.6355 117.489 56.6246 117.436 56.6046 117.358C56.5556 117.167 56.4789 116.935 56.384 116.687C56.356 116.614 56.3279 116.543 56.3002 116.475C54.3003 114.968 50.3171 112.844 46.7465 111.906C42.4636 110.782 37.1985 110.106 31.4691 110.106C25.7396 110.106 20.4746 110.782 16.1916 111.906C12.5895 112.852 8.56754 115.005 6.58551 116.515C6.56735 116.557 6.54898 116.601 6.53066 116.647C6.4499 116.847 6.38384 117.044 6.34067 117.217C6.29943 117.383 6.29444 117.467 6.29389 117.476C6.29389 117.52 6.31019 118.061 7.3714 119.02C8.41084 119.96 10.105 120.961 12.4761 121.867C17.1887 123.67 23.9037 124.848 31.4691 124.848C39.0344 124.848 45.7494 123.67 50.462 121.867C52.8331 120.961 54.5272 119.96 55.5666 119.02C56.4879 118.188 56.6218 117.671 56.6412 117.52ZM1.4976 112.339L27.4635 66.5569C29.3115 63.2986 33.6266 63.2986 35.4746 66.5569L61.4487 112.353C61.4762 112.402 61.5028 112.451 61.5283 112.502L58.7784 114.183C61.5283 112.502 61.528 112.501 61.5283 112.502L61.53 112.505L61.5322 112.51L61.5379 112.521L61.5533 112.552C61.5654 112.576 61.5813 112.608 61.6002 112.648C61.6381 112.726 61.6891 112.833 61.7486 112.963C61.8666 113.222 62.0249 113.585 62.1855 114.004C62.4505 114.697 62.9381 116.079 62.9381 117.477C62.9381 120.424 61.3694 122.733 59.5643 124.365C57.7374 126.016 55.2839 127.35 52.5297 128.403C46.9918 130.52 39.5456 131.767 31.4691 131.767C23.3925 131.767 15.9463 130.52 10.4084 128.403C7.65428 127.35 5.20073 126.016 3.3738 124.365C1.56867 122.733 0 120.424 0 117.477C0 115.978 0.460471 114.628 0.776058 113.845C0.949987 113.413 1.12264 113.051 1.25385 112.793C1.32011 112.662 1.37753 112.554 1.42163 112.474C1.44372 112.434 1.4626 112.4 1.47774 112.374L1.48948 112.353L1.4976 112.339ZM50.3297 105.826L31.4691 72.572L12.6082 105.826C13.321 105.579 14.0319 105.36 14.7302 105.176C19.555 103.91 25.317 103.187 31.4691 103.187C37.6211 103.187 43.3831 103.91 48.2079 105.176C48.9061 105.36 49.6171 105.579 50.3297 105.826Z" fill="#6366F1"/>
</svg>
